<svg xmlns="http://www.w3.org/2000/svg" width="20" height="20" viewBox="0 0 20 20" id="naruto"><g fill="none" fill-rule="evenodd"><g fill="#00ff95" transform="translate(-260 -7639)"><g transform="translate(56 160)"><path d="M210.594 7497h-2.855c-.77 0-1.25-.935-.86-1.601l1.116-1.86c.582 1.34 1.48 2.461 2.599 3.461m1.128-12.544c2.749-2.325 5.806-1.391 8.387-.89a1.99 1.99 0 0 0 1.997-.793l1.712-2.242a.968.968 0 0 0-.1-1.248.962.962 0 0 0-1.482.147c-1.831 2.404-1.532 2.419-4.942 1.629-.823-.191-1.679-.269-2.514-.134-4.55.735-7.941 4.901-7.492 9.731l-3.01 5.236c-.781 1.333.178 3.108 1.72 3.108h9.965c3.988.01 6.548-2.596 7.076-6.097.573-3.8-1.864-7.135-5.306-7.919-3.208-.731-6.498 1.496-6.518 4.796a5.006 5.006 0 0 0 4.158 4.96c1.79.303 3.625-.794 3.814-2.605a2.995 2.995 0 0 0-2.97-3.325.997.997 0 0 0-.996 1c0 .552.446 1 .998 1 .55 0 .996.447.996 1 0 .552-.446 1-.996 1a2.998 2.998 0 0 1-2.974-3.325c.19-1.812 2.02-2.909 3.81-2.605a4.997 4.997 0 0 1 4.148 4.959c-.019 3.243-3.233 5.481-6.4 4.827a6.997 6.997 0 0 1-5.563-6.856c0-2.148.965-4.07 2.482-5.354"></path></g></g></g></svg>